<?xml version="1.0" encoding="UTF-8" standalone="no"?>
<!-- Created with Inkscape (http://www.inkscape.org/) -->

<svg
   width="21.42643mm"
   height="21.42643mm"
   viewBox="0 0 21.42643 21.42643"
   version="1.1"
   id="svg1"
   sodipodi:docname="color.svg"
   inkscape:version="1.4.3 (0d15f75042, 2025-12-25)"
   inkscape:export-filename="color.png"
   inkscape:export-xdpi="355.63556"
   inkscape:export-ydpi="355.63556"
   xmlns:inkscape="http://www.inkscape.org/namespaces/inkscape"
   xmlns:sodipodi="http://sodipodi.sourceforge.net/DTD/sodipodi-0.dtd"
   xmlns="http://www.w3.org/2000/svg"
   xmlns:svg="http://www.w3.org/2000/svg">
  <sodipodi:namedview
     id="namedview1"
     pagecolor="#000000"
     bordercolor="#000000"
     borderopacity="0.25"
     inkscape:showpageshadow="2"
     inkscape:pageopacity="0.0"
     inkscape:pagecheckerboard="0"
     inkscape:deskcolor="#d1d1d1"
     inkscape:document-units="mm"
     inkscape:zoom="2.488214"
     inkscape:cx="-22.70705"
     inkscape:cy="26.926944"
     inkscape:window-width="1920"
     inkscape:window-height="1008"
     inkscape:window-x="1920"
     inkscape:window-y="0"
     inkscape:window-maximized="1"
     inkscape:current-layer="layer1" />
  <defs
     id="defs1" />
  <g
     id="layer1"
     transform="translate(-70.431435,43.701431)">
    <path
       d="m 70.431435,-42.378514 0,18.780765 a 1.3229167,1.3229167 45 0 0 1.322917,1.322917 h 3.506245 a 1.3229167,1.3229167 135 0 0 1.322917,-1.322917 V -33.74855 a 0.42331503,0.42331503 162.25605 0 1 0.767994,-0.245748 24074.206,24074.206 54.515244 0 1 1.485067,2.083159 l 0.460979,0.646703 a 2.2683008,2.2683008 0.00227587 0 0 3.694049,1.47e-4 l 0.461206,-0.646911 a 98633.594,98633.594 125.48714 0 1 1.535959,-2.154359 0.41164511,0.41164511 23.846252 0 1 0.717187,0.317009 v 10.150801 a 1.3229167,1.3229167 45 0 0 1.322917,1.322917 h 3.506245 a 1.3229167,1.3229167 135 0 0 1.322917,-1.322917 v -18.780765 a 1.3229167,1.3229167 45 0 0 -1.322917,-1.322917 h -3.506245 a 2.5678785,2.5678785 152.74343 0 0 -2.090892,1.077183 l -3.025529,4.243693 a 0.94311646,0.94311646 0.00153485 0 1 -1.535892,-4.1e-5 l -3.025128,-4.243611 a 2.5677096,2.5677096 27.258101 0 0 -2.090834,-1.077224 h -3.506245 a 1.3229167,1.3229167 135 0 0 -1.322917,1.322917 z"
       style="fill:#0ff000;fill-opacity:1;stroke-width:0.201798;stroke-linejoin:round"
       id="path8" />
  </g>
</svg>
